<?xml version="1.0" standalone="no"?>
<!DOCTYPE svg PUBLIC "-//W3C//DTD SVG 20010904//EN"
 "http://www.w3.org/TR/2001/REC-SVG-20010904/DTD/svg10.dtd">
<svg version="1.0" xmlns="http://www.w3.org/2000/svg"
 width="300.000000pt" height="311.000000pt" viewBox="0 0 300.000000 311.000000"
 preserveAspectRatio="xMidYMid meet">
<metadata>
Created by potrace 1.10, written by Peter Selinger 2001-2011
</metadata>
<g transform="translate(0.000000,311.000000) scale(0.100000,-0.100000)"
fill="#000000" stroke="none">
<path d="M503 3074 c-40 -62 -113 -263 -113 -310 0 -12 -4 -33 -9 -46 -7 -20
-12 -97 -24 -403 0 -11 3 -48 8 -82 l7 -61 -31 -16 c-44 -23 -58 -59 -60 -155
-2 -80 -14 -202 -24 -246 -20 -85 -24 -175 -16 -360 4 -83 4 -314 0 -491 -3
-113 11 -208 40 -274 11 -24 22 -71 25 -105 5 -56 34 -133 61 -163 7 -7 29
-34 50 -60 21 -26 44 -53 51 -60 7 -8 19 -26 26 -40 26 -49 57 -72 188 -138
28 -14 66 -24 90 -24 24 0 75 -7 113 -15 39 -8 99 -16 135 -19 60 -5 62 -5 20
4 -98 22 -207 40 -250 41 -56 3 -230 87 -257 124 -30 43 -136 179 -150 194
-28 28 -50 88 -56 151 -4 36 -15 90 -26 122 -37 102 -49 236 -26 291 4 9 0 47
-9 83 -9 36 -14 75 -11 85 14 44 20 290 9 404 -6 69 8 211 28 290 6 22 10 83
9 137 -1 53 3 117 10 142 9 38 17 47 44 57 30 11 34 17 37 58 3 25 1 51 -3 56
-10 13 -2 442 8 458 4 7 10 35 14 62 11 77 65 242 99 296 16 27 26 49 22 49
-4 -1 -17 -17 -29 -36z"/>
<path d="M2860 3101 c0 -6 4 -13 10 -16 6 -3 7 1 4 9 -7 18 -14 21 -14 7z"/>
<path d="M2903 2903 c1 -18 5 -33 10 -33 9 0 8 19 -3 45 -7 16 -8 14 -7 -12z"/>
<path d="M496 2905 c-3 -8 -1 -15 4 -15 6 0 10 7 10 15 0 8 -2 15 -4 15 -2 0
-6 -7 -10 -15z"/>
<path d="M1083 2893 c9 -2 23 -2 30 0 6 3 -1 5 -18 5 -16 0 -22 -2 -12 -5z"/>
<path d="M1137 2889 c8 -8 16 -8 30 0 16 9 14 10 -11 11 -22 0 -27 -3 -19 -11z"/>
<path d="M1218 2883 c12 -2 32 -2 45 0 12 2 2 4 -23 4 -25 0 -35 -2 -22 -4z"/>
<path d="M1300 2875 c15 -18 43 -20 38 -3 -2 6 -15 13 -27 15 -20 3 -22 1 -11
-12z"/>
<path d="M1352 2878 c3 -7 19 -14 37 -16 22 -2 31 0 26 8 -4 6 -15 8 -26 5
-11 -4 -19 -2 -19 4 0 6 -5 11 -11 11 -6 0 -9 -6 -7 -12z"/>
<path d="M1442 2860 c0 -14 2 -19 5 -12 2 6 2 18 0 25 -3 6 -5 1 -5 -13z"/>
<path d="M2857 2856 c-4 -10 -5 -21 -2 -24 9 -9 17 6 13 25 -3 17 -4 17 -11
-1z"/>
<path d="M901 2844 c0 -11 3 -14 6 -6 3 7 2 16 -1 19 -3 4 -6 -2 -5 -13z"/>
<path d="M1477 2839 c4 -15 8 -17 14 -8 8 14 3 29 -11 29 -4 0 -6 -9 -3 -21z"/>
<path d="M1520 2840 c0 -5 5 -10 11 -10 5 0 7 5 4 10 -3 6 -8 10 -11 10 -2 0
-4 -4 -4 -10z"/>
<path d="M1340 2822 c0 -7 -6 -12 -13 -12 -7 0 -18 -9 -25 -20 -7 -11 -8 -20
-4 -20 14 0 56 49 49 57 -4 3 -7 1 -7 -5z"/>
<path d="M1390 2809 c0 -5 5 -7 10 -4 6 3 10 8 10 11 0 2 -4 4 -10 4 -5 0 -10
-5 -10 -11z"/>
<path d="M1551 2804 c0 -11 3 -14 6 -6 3 7 2 16 -1 19 -3 4 -6 -2 -5 -13z"/>
<path d="M446 2801 c-4 -5 3 -7 14 -4 23 6 26 13 6 13 -8 0 -17 -4 -20 -9z"/>
<path d="M1210 2790 c11 -11 23 -20 27 -20 3 0 -2 9 -12 20 -10 11 -22 20 -27
20 -4 0 1 -9 12 -20z"/>
<path d="M1401 2772 c-22 -20 -41 -41 -41 -45 0 -11 -30 -41 -30 -30 -1 11
-29 -40 -29 -52 0 -5 4 -2 10 8 5 9 16 17 24 17 7 0 20 12 27 28 25 47 42 72
53 72 6 0 16 9 23 20 18 29 10 25 -37 -18z"/>
<path d="M846 2783 c-6 -14 -5 -15 5 -6 7 7 10 15 7 18 -3 3 -9 -2 -12 -12z"/>
<path d="M875 2790 c3 -5 8 -10 11 -10 2 0 4 5 4 10 0 6 -5 10 -11 10 -5 0 -7
-4 -4 -10z"/>
<path d="M921 2793 c-1 -6 -4 -20 -7 -30 -5 -17 -5 -17 6 0 6 10 9 23 6 30 -3
9 -5 9 -5 0z"/>
<path d="M1476 2791 c-4 -7 -5 -15 -2 -18 9 -9 19 4 14 18 -4 11 -6 11 -12 0z"/>
<path d="M1045 2760 c-3 -5 1 -10 9 -10 9 0 16 5 16 10 0 6 -4 10 -9 10 -6 0
-13 -4 -16 -10z"/>
<path d="M1500 2760 c0 -6 5 -10 11 -10 5 0 7 -5 3 -12 -4 -7 -3 -8 4 -4 16
10 15 23 -3 30 -8 3 -15 1 -15 -4z"/>
<path d="M440 2735 c0 -14 2 -25 4 -25 2 0 6 11 8 25 3 14 1 25 -3 25 -5 0 -9
-11 -9 -25z"/>
<path d="M1571 2744 c0 -11 3 -14 6 -6 3 7 2 16 -1 19 -3 4 -6 -2 -5 -13z"/>
<path d="M1080 2731 c0 -6 5 -13 10 -16 6 -3 10 1 10 9 0 9 -4 16 -10 16 -5 0
-10 -4 -10 -9z"/>
<path d="M1184 2715 c8 -8 19 -15 24 -15 5 0 15 -7 22 -15 7 -8 16 -15 21 -15
11 0 -21 31 -49 48 -29 16 -37 15 -18 -3z"/>
<path d="M1240 2722 c0 -4 9 -13 20 -20 11 -7 20 -8 20 -2 0 5 7 7 15 4 8 -4
15 -1 15 6 0 8 -9 10 -25 6 -14 -4 -25 -2 -25 4 0 5 -4 10 -10 10 -5 0 -10 -3
-10 -8z"/>
<path d="M1600 2720 c0 -5 5 -10 10 -10 6 0 10 5 10 10 0 6 -4 10 -10 10 -5 0
-10 -4 -10 -10z"/>
<path d="M1510 2716 c0 -2 7 -6 15 -10 8 -3 15 -1 15 4 0 6 -7 10 -15 10 -8 0
-15 -2 -15 -4z"/>
<path d="M981 2696 c-7 -8 -8 -17 -3 -19 4 -3 13 3 20 14 14 22 0 26 -17 5z"/>
<path d="M1482 2695 c-9 -15 -14 -17 -20 -7 -9 14 -45 5 -37 -9 3 -4 12 -6 20
-2 9 3 15 -1 15 -10 0 -8 -6 -18 -12 -20 -8 -3 -6 -6 5 -6 10 -1 21 7 24 17 4
9 11 20 16 23 5 4 7 13 5 20 -3 10 -8 8 -16 -6z"/>
<path d="M921 2693 c0 -6 -8 -19 -17 -27 -8 -9 -12 -20 -9 -26 11 -17 37 18
32 42 -2 13 -5 18 -6 11z"/>
<path d="M1106 2675 c-16 -12 -17 -15 -4 -15 9 0 18 7 22 15 7 18 6 18 -18 0z"/>
<path d="M440 2665 c0 -8 4 -15 10 -15 5 0 7 7 4 15 -4 8 -8 15 -10 15 -2 0
-4 -7 -4 -15z"/>
<path d="M840 2664 c0 -8 5 -12 10 -9 6 3 10 10 10 16 0 5 -4 9 -10 9 -5 0
-10 -7 -10 -16z"/>
<path d="M1165 2669 c-4 -6 -5 -12 -2 -15 2 -3 7 2 10 11 7 17 1 20 -8 4z"/>
<path d="M2850 2675 c0 -2 9 -27 20 -55 11 -28 20 -69 20 -90 0 -22 4 -40 10
-40 13 0 1 100 -16 127 -8 12 -14 31 -14 43 0 11 -4 20 -10 20 -5 0 -10 -2
-10 -5z"/>
<path d="M1410 2655 c7 -9 15 -13 17 -11 7 7 -7 26 -19 26 -6 0 -6 -6 2 -15z"/>
<path d="M1195 2650 c3 -5 8 -10 11 -10 2 0 4 5 4 10 0 6 -5 10 -11 10 -5 0
-7 -4 -4 -10z"/>
<path d="M1340 2650 c0 -5 5 -10 11 -10 5 0 7 5 4 10 -3 6 -8 10 -11 10 -2 0
-4 -4 -4 -10z"/>
<path d="M1640 2645 c0 -8 4 -15 10 -15 5 0 7 7 4 15 -4 8 -8 15 -10 15 -2 0
-4 -7 -4 -15z"/>
<path d="M710 2630 c0 -5 5 -10 11 -10 5 0 7 5 4 10 -3 6 -8 10 -11 10 -2 0
-4 -4 -4 -10z"/>
<path d="M825 2630 c-3 -5 -1 -10 4 -10 6 0 11 5 11 10 0 6 -2 10 -4 10 -3 0
-8 -4 -11 -10z"/>
<path d="M1510 2631 c0 -6 4 -13 10 -16 6 -3 7 1 4 9 -7 18 -14 21 -14 7z"/>
<path d="M870 2616 c0 -8 -6 -17 -12 -19 -10 -4 -10 -6 -1 -6 7 -1 17 8 23 19
7 14 7 20 0 20 -5 0 -10 -6 -10 -14z"/>
<path d="M1400 2580 c-8 -16 -8 -20 4 -20 9 0 14 8 13 20 -1 11 -2 20 -4 20
-1 0 -7 -9 -13 -20z"/>
<path d="M1616 2583 c-6 -14 -5 -15 5 -6 7 7 10 15 7 18 -3 3 -9 -2 -12 -12z"/>
<path d="M1660 2585 c0 -8 7 -15 16 -15 14 0 14 3 4 15 -7 8 -14 15 -16 15 -2
0 -4 -7 -4 -15z"/>
<path d="M1040 2580 c0 -5 5 -10 10 -10 6 0 10 5 10 10 0 6 -4 10 -10 10 -5 0
-10 -4 -10 -10z"/>
<path d="M1295 2580 c3 -5 8 -10 11 -10 2 0 4 5 4 10 0 6 -5 10 -11 10 -5 0
-7 -4 -4 -10z"/>
<path d="M1795 2580 c-3 -5 -1 -10 4 -10 6 0 11 5 11 10 0 6 -2 10 -4 10 -3 0
-8 -4 -11 -10z"/>
<path d="M788 2573 c7 -3 16 -2 19 1 4 3 -2 6 -13 5 -11 0 -14 -3 -6 -6z"/>
<path d="M1470 2563 c0 -7 4 -13 9 -13 5 0 11 6 14 13 3 8 -1 14 -9 14 -8 0
-14 -6 -14 -14z"/>
<path d="M1020 2554 c0 -8 5 -12 10 -9 6 4 8 11 5 16 -9 14 -15 11 -15 -7z"/>
<path d="M746 2541 c-4 -7 -5 -15 -2 -18 9 -9 19 4 14 18 -4 11 -6 11 -12 0z"/>
<path d="M1820 2539 c0 -5 5 -7 10 -4 6 3 10 8 10 11 0 2 -4 4 -10 4 -5 0 -10
-5 -10 -11z"/>
<path d="M421 2524 c0 -11 3 -14 6 -6 3 7 2 16 -1 19 -3 4 -6 -2 -5 -13z"/>
<path d="M630 2530 c0 -5 5 -10 10 -10 6 0 10 5 10 10 0 6 -4 10 -10 10 -5 0
-10 -4 -10 -10z"/>
<path d="M710 2518 c0 -19 2 -20 10 -8 13 19 13 30 0 30 -5 0 -10 -10 -10 -22z"/>
<path d="M900 2530 c0 -5 5 -10 10 -10 6 0 10 5 10 10 0 6 -4 10 -10 10 -5 0
-10 -4 -10 -10z"/>
<path d="M1368 2533 c7 -3 16 -2 19 1 4 3 -2 6 -13 5 -11 0 -14 -3 -6 -6z"/>
<path d="M1621 2514 c0 -11 3 -14 6 -6 3 7 2 16 -1 19 -3 4 -6 -2 -5 -13z"/>
<path d="M2295 2520 c3 -5 8 -10 11 -10 2 0 4 5 4 10 0 6 -5 10 -11 10 -5 0
-7 -4 -4 -10z"/>
<path d="M581 2494 c0 -11 3 -14 6 -6 3 7 2 16 -1 19 -3 4 -6 -2 -5 -13z"/>
<path d="M670 2494 c0 -8 5 -12 10 -9 6 4 8 11 5 16 -9 14 -15 11 -15 -7z"/>
<path d="M1536 2501 c-4 -7 -5 -15 -2 -18 9 -9 19 4 14 18 -4 11 -6 11 -12 0z"/>
<path d="M1211 2484 c0 -11 3 -14 6 -6 3 7 2 16 -1 19 -3 4 -6 -2 -5 -13z"/>
<path d="M1351 2484 c0 -11 3 -14 6 -6 3 7 2 16 -1 19 -3 4 -6 -2 -5 -13z"/>
<path d="M1383 2467 c-1 -30 -1 -31 9 -9 7 14 8 26 2 32 -5 5 -10 -4 -11 -23z"/>
<path d="M1680 2490 c-13 -8 -12 -10 3 -10 9 0 17 5 17 10 0 12 -1 12 -20 0z"/>
<path d="M420 2462 c0 -17 4 -34 10 -37 6 -4 7 6 3 27 -8 44 -13 48 -13 10z"/>
<path d="M1250 2470 c-8 -16 -8 -20 4 -20 16 0 29 27 16 35 -5 3 -14 -4 -20
-15z"/>
<path d="M628 2473 c7 -3 16 -2 19 1 4 3 -2 6 -13 5 -11 0 -14 -3 -6 -6z"/>
<path d="M1120 2468 c0 -4 -6 -8 -14 -8 -8 0 -18 -4 -21 -10 -10 -16 18 -11
44 9 17 13 19 18 7 18 -9 0 -16 -4 -16 -9z"/>
<path d="M1320 2464 c0 -8 5 -12 10 -9 6 3 10 10 10 16 0 5 -4 9 -10 9 -5 0
-10 -7 -10 -16z"/>
<path d="M581 2433 c-1 -24 1 -43 3 -43 8 0 12 48 5 66 -5 13 -8 7 -8 -23z"/>
<path d="M950 2460 c0 -5 5 -10 10 -10 6 0 10 5 10 10 0 6 -4 10 -10 10 -5 0
-10 -4 -10 -10z"/>
<path d="M1713 2455 c0 -8 4 -15 9 -15 4 0 8 4 8 9 0 6 -4 12 -8 15 -5 3 -9
-1 -9 -9z"/>
<path d="M2888 2403 c-3 -38 -10 -81 -16 -98 -6 -16 -20 -73 -32 -125 -12 -52
-33 -120 -47 -150 -42 -90 -44 -95 -47 -112 -1 -10 -9 -25 -17 -35 -9 -10 -24
-46 -34 -80 -11 -34 -23 -59 -27 -57 -5 3 -8 -4 -8 -15 0 -11 -11 -28 -24 -39
-14 -10 -33 -36 -42 -56 -15 -31 -16 -41 -5 -71 11 -32 10 -39 -25 -104 -21
-39 -52 -86 -71 -106 -22 -23 -41 -60 -55 -103 -11 -37 -25 -76 -31 -87 -6
-11 -19 -51 -29 -90 -20 -75 -55 -135 -92 -154 -27 -15 -58 -66 -81 -136 -37
-111 -69 -182 -99 -216 -70 -82 -80 -95 -93 -127 -18 -43 -95 -163 -116 -181
-10 -7 -26 -32 -36 -55 -23 -48 -75 -106 -95 -106 -8 0 -26 -15 -41 -33 -15
-17 -39 -40 -54 -49 -22 -16 -23 -18 -6 -18 10 0 38 19 62 43 23 23 60 58 82
77 22 19 54 58 71 85 17 28 48 72 69 98 21 27 49 70 61 95 13 26 34 61 47 77
13 17 27 35 31 40 4 6 23 30 43 55 23 28 49 81 69 140 43 127 60 156 119 213
42 40 54 59 72 120 12 39 29 92 39 117 9 25 25 71 34 102 10 32 22 58 27 58 9
0 77 96 103 149 17 33 23 94 12 138 -3 15 5 31 26 53 31 33 104 181 100 203
-1 4 2 7 7 7 5 0 13 10 17 22 3 12 13 37 22 57 9 20 16 41 18 47 1 5 13 35 27
66 14 31 29 73 32 94 4 22 16 77 26 123 24 103 33 191 20 191 -5 0 -11 -30
-13 -67z"/>
<path d="M1160 2456 c0 -2 7 -6 15 -10 8 -3 15 -1 15 4 0 6 -7 10 -15 10 -8 0
-15 -2 -15 -4z"/>
<path d="M2295 2449 c-4 -6 -5 -12 -2 -15 2 -3 7 2 10 11 7 17 1 20 -8 4z"/>
<path d="M1290 2434 c0 -8 5 -12 10 -9 6 4 8 11 5 16 -9 14 -15 11 -15 -7z"/>
<path d="M1813 2439 c3 -9 0 -23 -6 -30 -7 -8 -3 -6 8 3 16 15 17 20 6 30 -11
11 -13 10 -8 -3z"/>
<path d="M550 2425 c0 -8 4 -15 10 -15 5 0 7 7 4 15 -4 8 -8 15 -10 15 -2 0
-4 -7 -4 -15z"/>
<path d="M1245 2430 c3 -5 8 -10 11 -10 2 0 4 5 4 10 0 6 -5 10 -11 10 -5 0
-7 -4 -4 -10z"/>
<path d="M2056 2425 c4 -8 11 -15 16 -15 6 0 5 6 -2 15 -7 8 -14 15 -16 15 -2
0 -1 -7 2 -15z"/>
<path d="M1360 2420 c0 -5 5 -10 10 -10 6 0 10 5 10 10 0 6 -4 10 -10 10 -5 0
-10 -4 -10 -10z"/>
<path d="M511 2404 c0 -11 3 -14 6 -6 3 7 2 16 -1 19 -3 4 -6 -2 -5 -13z"/>
<path d="M1488 2398 c5 -5 16 -8 23 -6 8 3 3 7 -10 11 -17 4 -21 3 -13 -5z"/>
<path d="M1721 2394 c0 -11 3 -14 6 -6 3 7 2 16 -1 19 -3 4 -6 -2 -5 -13z"/>
<path d="M420 2379 c-6 -11 -10 -25 -8 -30 2 -5 8 4 15 21 13 34 9 40 -7 9z"/>
<path d="M531 2384 c0 -11 3 -14 6 -6 3 7 2 16 -1 19 -3 4 -6 -2 -5 -13z"/>
<path d="M554 2355 c-3 -25 -10 -42 -15 -39 -12 7 -11 -28 2 -46 8 -12 9 -10
4 8 -4 15 -2 22 7 22 9 0 14 16 16 50 3 62 -5 65 -14 5z"/>
<path d="M471 2374 c0 -11 3 -14 6 -6 3 7 2 16 -1 19 -3 4 -6 -2 -5 -13z"/>
<path d="M1965 2380 c-18 -8 -17 -9 8 -9 16 -1 26 3 22 9 -3 6 -7 10 -8 9 -1
0 -11 -4 -22 -9z"/>
<path d="M1151 2361 c-8 -6 -9 -11 -3 -15 6 -3 14 -1 17 5 9 14 2 20 -14 10z"/>
<path d="M2135 2360 c3 -5 8 -10 11 -10 2 0 4 5 4 10 0 6 -5 10 -11 10 -5 0
-7 -4 -4 -10z"/>
<path d="M1780 2353 c0 -5 4 -15 10 -23 11 -18 25 -7 17 15 -6 15 -27 21 -27
8z"/>
<path d="M472 2325 c0 -16 2 -22 5 -12 2 9 2 23 0 30 -3 6 -5 -1 -5 -18z"/>
<path d="M1180 2340 c-8 -5 -11 -13 -6 -17 5 -4 11 -2 13 5 4 10 8 10 21 0 13
-11 14 -11 11 1 -7 19 -20 23 -39 11z"/>
<path d="M1371 2334 c0 -11 3 -14 6 -6 3 7 2 16 -1 19 -3 4 -6 -2 -5 -13z"/>
<path d="M2136 2327 c3 -10 9 -15 12 -12 3 3 0 11 -7 18 -10 9 -11 8 -5 -6z"/>
<path d="M685 2320 c-3 -5 -1 -10 4 -10 6 0 11 5 11 10 0 6 -2 10 -4 10 -3 0
-8 -4 -11 -10z"/>
<path d="M1278 2313 c7 -3 16 -2 19 1 4 3 -2 6 -13 5 -11 0 -14 -3 -6 -6z"/>
<path d="M1770 2310 c0 -6 7 -10 15 -10 8 0 15 2 15 4 0 2 -7 6 -15 10 -8 3
-15 1 -15 -4z"/>
<path d="M2000 2310 c0 -5 5 -10 10 -10 6 0 10 5 10 10 0 6 -4 10 -10 10 -5 0
-10 -4 -10 -10z"/>
<path d="M1926 2287 c3 -10 9 -15 12 -12 3 3 0 11 -7 18 -10 9 -11 8 -5 -6z"/>
<path d="M845 2280 c-3 -5 -12 -7 -19 -4 -7 3 -22 -3 -31 -13 -10 -10 -22 -18
-26 -18 -4 0 -11 -3 -15 -7 -4 -5 3 -8 15 -8 12 0 29 7 38 16 9 8 22 13 30 10
7 -3 16 1 19 9 4 8 11 12 18 8 20 -13 36 -12 36 3 0 16 -55 20 -65 4z"/>
<path d="M1449 2263 c-13 -17 -13 -17 6 -3 11 8 22 16 24 17 2 2 0 3 -6 3 -6
0 -17 -8 -24 -17z"/>
<path d="M1898 2273 c7 -3 16 -2 19 1 4 3 -2 6 -13 5 -11 0 -14 -3 -6 -6z"/>
<path d="M524 2228 c-1 -17 -7 -35 -15 -40 -11 -8 -10 -9 3 -4 12 3 18 -2 21
-22 3 -19 4 -14 6 15 0 23 4 48 7 56 3 8 -1 17 -8 19 -9 4 -13 -4 -14 -24z"/>
<path d="M920 2245 c0 -8 4 -15 10 -15 5 0 7 7 4 15 -4 8 -8 15 -10 15 -2 0
-4 -7 -4 -15z"/>
<path d="M838 2233 c7 -3 16 -2 19 1 4 3 -2 6 -13 5 -11 0 -14 -3 -6 -6z"/>
<path d="M2112 2217 c-17 -40 -15 -54 4 -35 9 8 14 26 12 39 -4 24 -5 24 -16
-4z"/>
<path d="M471 2214 c0 -11 3 -14 6 -6 3 7 2 16 -1 19 -3 4 -6 -2 -5 -13z"/>
<path d="M950 2220 c-8 -5 -12 -12 -9 -15 4 -3 12 1 19 10 14 17 11 19 -10 5z"/>
<path d="M988 2223 c7 -3 16 -2 19 1 4 3 -2 6 -13 5 -11 0 -14 -3 -6 -6z"/>
<path d="M1750 2213 c-13 -15 -12 -16 4 -10 10 4 20 7 22 7 2 0 4 5 4 10 0 15
-13 12 -30 -7z"/>
<path d="M2268 2224 c-5 -4 -8 -16 -8 -28 0 -14 3 -17 11 -9 6 6 9 19 7 28 -1
9 -6 13 -10 9z"/>
<path d="M761 2213 c-1 -7 -7 -13 -13 -13 -16 0 -50 -58 -42 -71 9 -14 24 -10
18 5 -3 8 7 25 22 39 14 14 24 31 21 38 -4 10 -6 10 -6 2z"/>
<path d="M442 2190 c0 -14 2 -19 5 -12 2 6 2 18 0 25 -3 6 -5 1 -5 -13z"/>
<path d="M886 2195 c-3 -8 -1 -15 5 -15 6 0 8 -9 4 -20 -8 -24 1 -26 21 -5 10
10 11 15 4 15 -7 0 -10 8 -7 20 6 24 -18 28 -27 5z"/>
<path d="M1021 2203 c0 -5 4 -17 8 -28 5 -11 4 -25 -1 -32 -6 -7 -6 -13 -2
-13 5 0 15 10 23 22 11 18 11 22 -3 30 -9 5 -14 13 -11 19 4 5 1 9 -4 9 -6 0
-11 -3 -10 -7z"/>
<path d="M1805 2190 c-4 -7 -20 -10 -36 -8 -41 6 -36 -5 9 -19 41 -13 59 -4
44 22 -7 13 -11 14 -17 5z"/>
<path d="M1916 2184 c-5 -13 -9 -14 -20 -5 -11 9 -15 9 -20 -1 -5 -10 -7 -10
-12 0 -9 19 -24 4 -24 -25 0 -25 1 -25 19 -9 12 11 25 15 33 10 7 -5 21 -7 31
-6 9 2 17 -1 17 -7 0 -6 7 -7 17 -4 11 4 14 3 9 -5 -5 -8 0 -12 14 -12 12 0
18 5 15 10 -3 6 0 10 7 10 8 0 6 5 -5 11 -10 6 -25 8 -33 5 -8 -3 -14 -1 -14
4 0 6 -7 10 -15 10 -9 0 -12 6 -9 15 4 8 4 15 1 15 -3 0 -8 -7 -11 -16z"/>
<path d="M990 2159 c0 -11 -4 -18 -8 -15 -5 3 -9 -1 -9 -8 0 -11 4 -12 19 -3
19 12 25 47 8 47 -5 0 -10 -9 -10 -21z"/>
<path d="M1456 2163 c-6 -14 -5 -15 5 -6 7 7 10 15 7 18 -3 3 -9 -2 -12 -12z"/>
<path d="M1684 2164 c-4 -10 -9 -22 -11 -26 -2 -5 0 -8 5 -8 10 0 24 41 17 48
-3 3 -8 -4 -11 -14z"/>
<path d="M508 2155 c-10 -29 -13 -89 -5 -102 4 -6 0 -13 -8 -17 -8 -3 -15 -17
-15 -31 0 -15 -4 -24 -8 -21 -4 2 -6 -12 -4 -32 3 -34 2 -35 -12 -19 -13 17
-14 15 -10 -25 3 -32 2 -38 -5 -23 -14 29 -13 83 1 87 7 3 9 12 5 22 -4 9 -11
15 -16 11 -6 -3 -8 -12 -4 -20 3 -8 1 -15 -5 -15 -17 0 -10 -169 8 -180 8 -5
10 -10 4 -10 -5 0 -15 5 -21 11 -17 17 -24 -4 -24 -66 0 -55 -13 -74 -22 -32
-3 12 -5 -3 -5 -33 1 -91 -1 -107 -11 -91 -11 17 -31 6 -31 -17 0 -10 3 -13 8
-7 4 6 18 12 30 12 17 1 22 -2 18 -13 -3 -9 -6 -25 -7 -37 0 -21 -1 -21 -10 2
l-10 25 -15 -28 c-13 -26 -13 -30 3 -42 17 -12 17 -13 -3 -14 -19 0 -23 -7
-26 -45 -2 -36 -1 -42 8 -30 14 19 24 19 24 0 0 -8 -4 -15 -10 -15 -5 0 -10
-12 -10 -27 0 -22 -2 -25 -10 -13 -5 8 -10 10 -10 4 0 -11 29 -41 31 -33 0 2
2 15 3 28 2 14 8 27 14 29 8 2 12 28 12 67 0 39 4 65 12 67 6 2 11 29 12 65 1
43 4 59 12 52 8 -6 11 1 12 22 0 18 5 44 11 58 13 33 71 260 71 279 0 8 7 29
15 47 11 22 15 54 13 101 -2 42 -6 61 -10 49z m-68 -323 c0 -7 -4 -10 -10 -7
-5 3 -10 16 -10 28 0 18 2 19 10 7 5 -8 10 -21 10 -28z"/>
<path d="M1072 2150 c0 -14 2 -19 5 -12 2 6 2 18 0 25 -3 6 -5 1 -5 -13z"/>
<path d="M1110 2160 c-8 -5 -12 -11 -9 -14 2 -3 11 -1 19 4 8 5 12 11 9 14 -2
3 -11 1 -19 -4z"/>
<path d="M2163 2151 c1 -14 9 -26 17 -28 10 -3 11 -2 4 4 -7 4 -14 17 -17 28
-5 16 -5 15 -4 -4z"/>
<path d="M413 2142 c-12 -20 -6 -112 8 -112 9 0 14 45 8 65 -1 6 -3 22 -2 38
0 32 1 32 -14 9z"/>
<path d="M1630 2150 c0 -5 5 -10 10 -10 6 0 10 5 10 10 0 6 -4 10 -10 10 -5 0
-10 -4 -10 -10z"/>
<path d="M2026 2125 c7 -17 59 -21 69 -5 4 6 -6 7 -25 4 -19 -4 -30 -2 -30 5
0 6 -4 11 -10 11 -5 0 -7 -7 -4 -15z"/>
<path d="M620 2120 c-8 -5 -12 -11 -10 -14 3 -2 14 2 24 10 22 15 10 19 -14 4z"/>
<path d="M1148 2123 c7 -3 16 -2 19 1 4 3 -2 6 -13 5 -11 0 -14 -3 -6 -6z"/>
<path d="M1738 2123 c-10 -2 -18 -8 -18 -13 0 -4 9 -6 20 -3 11 3 20 9 20 14
0 5 -1 8 -2 8 -2 -1 -11 -3 -20 -6z"/>
<path d="M674 2105 c-10 -8 -14 -14 -9 -15 15 0 40 18 34 24 -3 3 -14 -1 -25
-9z"/>
<path d="M2230 2110 c0 -5 5 -10 10 -10 6 0 10 5 10 10 0 6 -4 10 -10 10 -5 0
-10 -4 -10 -10z"/>
<path d="M1082 2101 c2 -7 7 -12 11 -12 12 1 9 15 -3 20 -7 2 -11 -2 -8 -8z"/>
<path d="M1130 2102 c0 -4 9 -8 20 -8 11 0 20 4 20 8 0 4 -9 8 -20 8 -11 0
-20 -4 -20 -8z"/>
<path d="M1210 2083 c0 -16 5 -35 10 -43 8 -11 9 -8 4 11 -3 15 -1 30 5 34 12
7 5 25 -10 25 -5 0 -9 -12 -9 -27z"/>
<path d="M1615 2070 c-3 -5 -1 -10 4 -10 6 0 11 5 11 10 0 6 -2 10 -4 10 -3 0
-8 -4 -11 -10z"/>
<path d="M330 2055 c0 -4 6 -18 14 -34 18 -33 16 -53 -7 -75 -18 -18 -24 -62
-7 -51 6 3 10 13 10 21 0 8 6 14 14 14 7 0 16 12 19 28 7 35 -12 102 -30 102
-7 0 -13 -2 -13 -5z"/>
<path d="M1163 2043 c9 -2 17 -9 17 -14 0 -6 5 -7 10 -4 18 11 10 21 -17 22
-16 0 -20 -1 -10 -4z"/>
<path d="M461 2014 c0 -11 3 -14 6 -6 3 7 2 16 -1 19 -3 4 -6 -2 -5 -13z"/>
<path d="M1245 2010 c-3 -5 -1 -10 4 -10 6 0 11 5 11 10 0 6 -2 10 -4 10 -3 0
-8 -4 -11 -10z"/>
<path d="M2736 2005 c-3 -8 -1 -15 4 -15 6 0 10 7 10 15 0 8 -2 15 -4 15 -2 0
-6 -7 -10 -15z"/>
<path d="M1740 1991 c-5 -11 -10 -22 -10 -25 0 -10 49 -6 55 4 3 6 -3 10 -14
10 -14 0 -19 5 -15 15 9 22 -3 18 -16 -4z"/>
<path d="M325 1990 c3 -5 8 -10 11 -10 2 0 4 5 4 10 0 6 -5 10 -11 10 -5 0 -7
-4 -4 -10z"/>
<path d="M975 1990 c3 -5 8 -10 11 -10 2 0 4 5 4 10 0 6 -5 10 -11 10 -5 0 -7
-4 -4 -10z"/>
<path d="M2700 1976 c0 -9 5 -16 10 -16 6 0 10 4 10 9 0 6 -4 13 -10 16 -5 3
-10 -1 -10 -9z"/>
<path d="M885 1970 c-3 -5 -21 -11 -38 -11 -24 -1 -26 -3 -9 -6 12 -2 22 -8
22 -13 0 -10 -48 -22 -60 -15 -6 4 -10 1 -10 -5 0 -12 -46 -61 -56 -59 -17 3
-15 -13 3 -17 13 -4 20 -11 16 -20 -4 -10 0 -12 12 -8 11 5 21 1 27 -9 5 -10
16 -17 23 -17 8 0 15 -5 15 -11 0 -11 24 -39 34 -39 14 0 4 27 -14 40 -23 17
-28 55 -6 47 8 -3 16 -1 18 4 2 6 28 14 58 17 49 6 55 10 57 32 1 14 0 18 -3
9 -4 -13 -19 -16 -70 -16 -42 0 -69 -5 -74 -12 -4 -7 -11 -13 -16 -14 -5 -1
-8 -5 -7 -8 1 -4 -9 -2 -22 5 -37 17 -30 24 58 68 11 5 36 10 57 10 28 0 37 4
33 14 -3 9 -15 11 -36 8 -32 -5 -32 -5 -8 9 14 8 19 17 13 21 -6 3 -13 2 -17
-4z"/>
<path d="M935 1970 c3 -5 8 -10 11 -10 2 0 4 5 4 10 0 6 -5 10 -11 10 -5 0 -7
-4 -4 -10z"/>
<path d="M1843 1968 c-2 -5 12 -8 31 -8 19 0 37 3 39 8 3 4 -11 7 -30 7 -19 0
-37 -3 -40 -7z"/>
<path d="M1796 1940 c-19 -6 -19 -7 2 -12 12 -4 24 -2 27 2 8 13 -8 18 -29 10z"/>
<path d="M1845 1939 c-4 -6 -5 -12 -2 -15 2 -3 7 2 10 11 7 17 1 20 -8 4z"/>
<path d="M2020 1940 c0 -5 5 -10 10 -10 6 0 10 5 10 10 0 6 -4 10 -10 10 -5 0
-10 -4 -10 -10z"/>
<path d="M2050 1940 c0 -13 11 -13 30 0 12 8 11 10 -7 10 -13 0 -23 -4 -23
-10z"/>
<path d="M2118 1943 c12 -2 30 -2 40 0 9 3 -1 5 -23 4 -22 0 -30 -2 -17 -4z"/>
<path d="M950 1919 c0 -11 4 -18 10 -14 5 3 7 12 3 20 -7 21 -13 19 -13 -6z"/>
<path d="M1892 1935 c9 -9 68 -13 62 -4 -3 5 -19 9 -36 9 -17 0 -29 -2 -26 -5z"/>
<path d="M995 1920 c-3 -5 -1 -10 4 -10 6 0 11 5 11 10 0 6 -2 10 -4 10 -3 0
-8 -4 -11 -10z"/>
<path d="M1740 1916 c0 -2 9 -6 20 -9 11 -3 18 -1 14 4 -5 9 -34 13 -34 5z"/>
<path d="M2171 1915 c0 -18 28 -61 29 -44 0 8 -7 24 -15 35 -8 10 -14 15 -14
9z"/>
<path d="M520 1890 c0 -5 5 -10 11 -10 5 0 7 5 4 10 -3 6 -8 10 -11 10 -2 0
-4 -4 -4 -10z"/>
<path d="M1050 1890 c0 -5 5 -10 10 -10 6 0 10 5 10 10 0 6 -4 10 -10 10 -5 0
-10 -4 -10 -10z"/>
<path d="M1655 1890 c4 -6 11 -8 16 -5 14 9 11 15 -7 15 -8 0 -12 -5 -9 -10z"/>
<path d="M1415 1880 c-3 -5 -1 -10 4 -10 6 0 11 5 11 10 0 6 -2 10 -4 10 -3 0
-8 -4 -11 -10z"/>
<path d="M1958 1883 c7 -3 16 -2 19 1 4 3 -2 6 -13 5 -11 0 -14 -3 -6 -6z"/>
<path d="M2451 1874 c0 -11 3 -14 6 -6 3 7 2 16 -1 19 -3 4 -6 -2 -5 -13z"/>
<path d="M391 1854 c0 -11 3 -14 6 -6 3 7 2 16 -1 19 -3 4 -6 -2 -5 -13z"/>
<path d="M691 1861 c-8 -6 -9 -11 -3 -15 6 -3 14 -1 17 5 9 14 2 20 -14 10z"/>
<path d="M1085 1860 c3 -5 8 -10 11 -10 2 0 4 5 4 10 0 6 -5 10 -11 10 -5 0
-7 -4 -4 -10z"/>
<path d="M2028 1853 c7 -3 16 -2 19 1 4 3 -2 6 -13 5 -11 0 -14 -3 -6 -6z"/>
<path d="M2135 1851 c-3 -5 -1 -12 5 -16 5 -3 10 1 10 9 0 18 -6 21 -15 7z"/>
<path d="M970 1834 c0 -5 -10 -14 -22 -19 -12 -6 -26 -19 -32 -30 -6 -11 -15
-23 -19 -26 -4 -3 -1 -12 8 -19 8 -7 15 -10 15 -6 0 3 17 -3 37 -14 21 -11 44
-20 51 -20 22 0 8 25 -16 28 -12 2 -22 7 -22 11 0 13 42 63 48 57 3 -3 -3 -15
-13 -26 -10 -11 -13 -20 -7 -20 15 0 35 38 28 56 -8 22 -20 17 -39 -16 -11
-18 -23 -27 -32 -23 -11 4 -14 0 -9 -13 5 -18 5 -18 -6 -1 -9 13 -8 21 4 33
12 12 16 12 17 2 0 -7 5 0 10 16 4 17 6 32 4 35 -3 2 -5 0 -5 -5z"/>
<path d="M1880 1819 c0 -5 5 -7 10 -4 6 3 10 8 10 11 0 2 -4 4 -10 4 -5 0 -10
-5 -10 -11z"/>
<path d="M2181 1787 c16 -31 18 -32 16 -8 -1 11 -7 23 -14 26 -11 4 -11 0 -2
-18z"/>
<path d="M1045 1771 c-3 -5 -1 -12 5 -16 5 -3 10 1 10 9 0 18 -6 21 -15 7z"/>
<path d="M2617 1773 c-4 -3 -7 -13 -7 -22 1 -13 3 -13 11 2 11 19 8 33 -4 20z"/>
<path d="M1506 1745 c4 -8 8 -15 10 -15 2 0 4 7 4 15 0 8 -4 15 -10 15 -5 0
-7 -7 -4 -15z"/>
<path d="M2425 1750 c-3 -5 -1 -10 4 -10 6 0 11 5 11 10 0 6 -2 10 -4 10 -3 0
-8 -4 -11 -10z"/>
<path d="M576 1741 c-4 -7 -5 -15 -2 -18 9 -9 19 4 14 18 -4 11 -6 11 -12 0z"/>
<path d="M1020 1740 c0 -5 5 -10 10 -10 6 0 10 5 10 10 0 6 -4 10 -10 10 -5 0
-10 -4 -10 -10z"/>
<path d="M1052 1723 c-26 -29 -27 -33 -7 -33 9 0 20 12 26 26 13 36 8 38 -19
7z"/>
<path d="M2445 1719 c-4 -6 -5 -12 -2 -15 2 -3 7 2 10 11 7 17 1 20 -8 4z"/>
<path d="M1152 1713 c-48 -9 -36 -52 16 -53 22 0 31 23 12 35 -6 4 -8 11 -5
16 4 5 5 8 3 8 -2 -1 -13 -4 -26 -6z"/>
<path d="M1483 1685 c0 -22 2 -30 4 -17 2 12 2 30 0 40 -3 9 -5 -1 -4 -23z"/>
<path d="M1511 1704 c0 -11 3 -14 6 -6 3 7 2 16 -1 19 -3 4 -6 -2 -5 -13z"/>
<path d="M2411 1694 c0 -11 3 -14 6 -6 3 7 2 16 -1 19 -3 4 -6 -2 -5 -13z"/>
<path d="M1243 1685 c0 -8 4 -15 9 -15 4 0 8 7 8 15 0 8 -4 15 -8 15 -5 0 -9
-7 -9 -15z"/>
<path d="M1290 1684 c0 -8 5 -12 10 -9 6 3 10 10 10 16 0 5 -4 9 -10 9 -5 0
-10 -7 -10 -16z"/>
<path d="M1715 1690 c3 -5 12 -7 20 -3 21 7 19 13 -6 13 -11 0 -18 -4 -14 -10z"/>
<path d="M641 1670 c-7 -4 -9 -10 -5 -12 12 -7 84 3 84 11 0 9 -64 11 -79 1z"/>
<path d="M732 1660 c5 -16 56 -35 65 -26 10 10 -9 24 -41 32 -22 5 -28 4 -24
-6z"/>
<path d="M1840 1660 c0 -5 5 -10 11 -10 5 0 7 5 4 10 -3 6 -8 10 -11 10 -2 0
-4 -4 -4 -10z"/>
<path d="M292 1620 c0 -19 2 -27 5 -17 2 9 2 25 0 35 -3 9 -5 1 -5 -18z"/>
<path d="M2416 1633 c-6 -14 -5 -15 5 -6 7 7 10 15 7 18 -3 3 -9 -2 -12 -12z"/>
<path d="M700 1630 c0 -5 5 -10 11 -10 5 0 7 5 4 10 -3 6 -8 10 -11 10 -2 0
-4 -4 -4 -10z"/>
<path d="M811 1633 c-1 -6 -11 -13 -23 -15 -20 -3 -17 -6 19 -25 22 -12 44
-19 47 -16 3 4 6 1 6 -5 0 -6 14 -13 30 -17 17 -4 30 -11 30 -16 0 -27 176 5
188 34 2 4 10 3 18 -4 9 -7 14 -8 14 -1 0 6 14 14 32 17 30 7 31 8 13 21 -10
8 -21 11 -24 6 -6 -7 -9 -8 -56 -10 -17 -2 -23 -6 -19 -17 4 -10 0 -15 -15
-15 -15 0 -19 4 -14 18 5 14 3 14 -13 -3 -14 -15 -31 -20 -64 -19 -25 0 -49 2
-55 4 -5 1 -13 2 -17 1 -5 0 -8 3 -8 8 0 18 -31 41 -55 41 -13 0 -26 6 -28 13
-4 8 -6 9 -6 0z"/>
<path d="M1067 1629 c7 -7 15 -10 18 -7 3 3 -2 9 -12 12 -14 6 -15 5 -6 -5z"/>
<path d="M1787 1620 c-9 -11 -17 -28 -16 -38 0 -13 2 -14 6 -2 4 8 12 21 20
28 11 12 18 32 10 32 -1 0 -10 -9 -20 -20z"/>
<path d="M333 1615 c-3 -9 -3 -18 -1 -21 3 -3 8 4 11 16 6 23 -1 27 -10 5z"/>
<path d="M1476 1623 c-9 -9 -7 -51 3 -57 5 -3 11 8 13 25 5 29 -3 45 -16 32z"/>
<path d="M1822 1605 c-6 -14 -8 -25 -3 -25 4 0 13 11 19 25 6 14 8 25 3 25 -4
0 -13 -11 -19 -25z"/>
<path d="M2028 1612 c9 -10 19 -17 21 -16 6 5 -20 34 -30 34 -5 0 -1 -8 9 -18z"/>
<path d="M1260 1610 c0 -5 5 -10 11 -10 5 0 7 5 4 10 -3 6 -8 10 -11 10 -2 0
-4 -4 -4 -10z"/>
<path d="M1925 1610 c-3 -5 -1 -10 4 -10 6 0 11 5 11 10 0 6 -2 10 -4 10 -3 0
-8 -4 -11 -10z"/>
<path d="M1020 1599 c0 -5 5 -7 10 -4 6 3 10 8 10 11 0 2 -4 4 -10 4 -5 0 -10
-5 -10 -11z"/>
<path d="M1850 1586 c-7 -14 -19 -26 -26 -26 -7 0 -19 -10 -25 -22 -8 -14 -14
-18 -17 -10 -2 6 -12 12 -21 12 -12 0 -17 7 -17 21 1 12 -6 24 -14 27 -13 4
-13 3 -2 -11 11 -13 10 -17 -7 -26 -26 -14 -31 -14 -31 2 0 9 -14 13 -45 12
-51 -1 -85 -22 -38 -23 36 -1 104 -12 123 -19 17 -7 24 -8 95 -22 54 -10 59
-8 70 27 5 19 3 22 -19 22 -14 0 -26 -5 -26 -11 0 -5 5 -7 10 -4 6 3 10 1 10
-5 0 -15 -52 -8 -58 8 -2 6 3 12 11 12 18 0 50 35 45 50 -2 7 -10 0 -18 -14z"/>
<path d="M935 1590 c-3 -5 1 -10 9 -10 9 0 16 5 16 10 0 6 -4 10 -9 10 -6 0
-13 -4 -16 -10z"/>
<path d="M1640 1590 c0 -5 5 -10 10 -10 6 0 10 5 10 10 0 6 -4 10 -10 10 -5 0
-10 -4 -10 -10z"/>
<path d="M1950 1590 c0 -5 5 -10 10 -10 6 0 10 5 10 10 0 6 -4 10 -10 10 -5 0
-10 -4 -10 -10z"/>
<path d="M2377 1583 c-14 -49 -17 -93 -7 -93 5 0 10 10 10 22 0 12 8 30 17 40
16 18 16 18 0 12 -9 -3 -17 -2 -17 4 0 6 5 12 12 14 9 3 9 6 1 11 -7 4 -14 0
-16 -10z"/>
<path d="M1450 1566 c0 -21 11 -46 20 -46 10 0 0 49 -11 56 -5 3 -9 -1 -9 -10z"/>
<path d="M1965 1560 c-3 -5 3 -10 15 -10 12 0 18 5 15 10 -3 6 -10 10 -15 10
-5 0 -12 -4 -15 -10z"/>
<path d="M2011 1534 c-1 -6 -15 -14 -32 -18 -17 -3 -28 -10 -24 -16 3 -6 15
-6 29 0 13 5 33 6 44 3 11 -2 23 0 26 6 4 7 -1 11 -13 11 -10 0 -22 6 -24 13
-4 7 -6 8 -6 1z"/>
<path d="M1560 1510 c0 -11 2 -20 4 -20 2 0 6 9 9 20 3 11 1 20 -4 20 -5 0 -9
-9 -9 -20z"/>
<path d="M2435 1520 c-3 -5 -1 -10 4 -10 6 0 11 5 11 10 0 6 -2 10 -4 10 -3 0
-8 -4 -11 -10z"/>
<path d="M1915 1510 c-3 -5 -1 -10 4 -10 6 0 11 5 11 10 0 6 -2 10 -4 10 -3 0
-8 -4 -11 -10z"/>
<path d="M2512 1474 c-20 -25 -32 -51 -29 -61 4 -14 5 -13 6 5 0 12 8 25 16
28 8 4 15 12 15 20 0 8 4 14 9 14 8 0 24 30 19 35 -2 2 -18 -17 -36 -41z"/>
<path d="M2105 1499 c-4 -6 -3 -15 3 -21 6 -6 11 -4 15 6 7 18 -9 31 -18 15z"/>
<path d="M1470 1490 c0 -5 4 -10 9 -10 6 0 13 5 16 10 3 6 -1 10 -9 10 -9 0
-16 -4 -16 -10z"/>
<path d="M1610 1474 c0 -8 5 -12 10 -9 6 3 10 10 10 16 0 5 -4 9 -10 9 -5 0
-10 -7 -10 -16z"/>
<path d="M1935 1480 c3 -5 8 -10 11 -10 2 0 4 5 4 10 0 6 -5 10 -11 10 -5 0
-7 -4 -4 -10z"/>
<path d="M1565 1470 c-3 -5 -1 -10 4 -10 6 0 11 5 11 10 0 6 -2 10 -4 10 -3 0
-8 -4 -11 -10z"/>
<path d="M2140 1470 c0 -5 5 -10 10 -10 6 0 10 5 10 10 0 6 -4 10 -10 10 -5 0
-10 -4 -10 -10z"/>
<path d="M2350 1464 c0 -12 -9 -50 -20 -84 -22 -69 -25 -100 -10 -100 6 0 10
18 10 39 0 22 5 43 10 46 6 3 10 17 10 31 0 14 4 33 9 43 6 10 6 23 0 32 -7
11 -9 10 -9 -7z"/>
<path d="M2380 1469 c0 -5 5 -7 10 -4 6 3 10 8 10 11 0 2 -4 4 -10 4 -5 0 -10
-5 -10 -11z"/>
<path d="M1636 1451 c-3 -5 1 -11 9 -15 8 -3 15 -12 15 -21 0 -8 7 -15 15 -15
8 0 15 -5 15 -11 0 -5 4 -8 9 -4 5 3 12 1 16 -4 3 -6 26 -20 50 -32 25 -12 45
-27 45 -33 0 -6 5 -4 10 4 8 12 12 12 18 2 10 -15 195 -16 186 -1 -3 5 2 9 10
9 9 0 16 7 16 16 0 12 -3 14 -12 6 -7 -5 -40 -13 -73 -17 -33 -3 -70 -8 -82
-11 -17 -3 -23 0 -23 12 0 10 -6 14 -14 11 -8 -3 -17 -3 -21 1 -4 4 -11 8 -16
8 -5 1 -13 2 -19 3 -5 0 -10 5 -10 11 0 5 17 7 39 4 21 -3 42 -1 45 4 3 5 -17
9 -49 8 -30 -1 -55 2 -55 6 0 4 -7 4 -17 1 -11 -4 -14 -3 -9 5 5 8 0 12 -14
12 -11 0 -23 7 -26 15 -4 8 -12 15 -20 15 -8 0 -14 5 -14 10 0 12 -17 13 -24
1z"/>
<path d="M2403 1433 c-14 -29 -9 -43 8 -26 6 6 9 20 7 32 -3 19 -4 19 -15 -6z"/>
<path d="M836 1434 c-8 -21 -6 -23 17 -15 17 6 17 9 4 19 -12 10 -16 9 -21 -4z"/>
<path d="M2057 1414 c3 -7 0 -14 -6 -14 -6 0 -11 5 -11 11 0 8 -5 7 -15 -1
-19 -16 -14 -22 25 -26 24 -3 30 0 30 15 0 10 -7 21 -14 24 -10 4 -13 1 -9 -9z"/>
<path d="M1310 1376 c0 -14 4 -27 8 -30 5 -3 6 8 4 25 -5 35 -12 38 -12 5z"/>
<path d="M1952 1365 c8 -8 69 -15 64 -6 -3 3 -19 8 -37 9 -18 1 -30 0 -27 -3z"/>
<path d="M2361 1357 c-6 -8 -8 -17 -4 -20 11 -12 19 -7 20 13 2 24 -1 25 -16
7z"/>
<path d="M1008 1339 c-9 -10 -14 -20 -10 -23 3 -3 0 -6 -5 -6 -6 0 -14 6 -17
13 -3 6 -3 0 0 -14 4 -17 1 -28 -9 -32 -20 -8 -29 -47 -10 -47 8 0 11 5 8 10
-3 6 1 13 9 16 9 3 16 13 16 20 0 16 28 49 47 55 8 3 8 7 0 14 -9 7 -17 5 -29
-6z"/>
<path d="M1552 1335 c0 -16 2 -22 5 -12 2 9 2 23 0 30 -3 6 -5 -1 -5 -18z"/>
<path d="M376 1334 c-4 -9 -4 -19 -1 -22 2 -3 7 3 11 12 4 9 4 19 1 22 -2 3
-7 -3 -11 -12z"/>
<path d="M1501 1324 c0 -11 3 -14 6 -6 3 7 2 16 -1 19 -3 4 -6 -2 -5 -13z"/>
<path d="M2065 1320 c3 -5 8 -10 11 -10 2 0 4 5 4 10 0 6 -5 10 -11 10 -5 0
-7 -4 -4 -10z"/>
<path d="M821 1294 c0 -11 3 -14 6 -6 3 7 2 16 -1 19 -3 4 -6 -2 -5 -13z"/>
<path d="M900 1300 c0 -5 5 -10 11 -10 5 0 7 5 4 10 -3 6 -8 10 -11 10 -2 0
-4 -4 -4 -10z"/>
<path d="M937 1299 c7 -7 15 -10 18 -7 3 3 -2 9 -12 12 -14 6 -15 5 -6 -5z"/>
<path d="M2085 1300 c-3 -6 30 -40 39 -40 2 0 1 11 -1 23 -4 22 -28 33 -38 17z"/>
<path d="M299 1300 c0 -3 -2 -16 -3 -30 -1 -14 -6 -36 -10 -49 -5 -15 -5 -21
2 -17 19 11 35 77 23 89 -6 6 -11 9 -12 7z"/>
<path d="M769 1283 c-13 -16 -12 -17 4 -4 9 7 17 15 17 17 0 8 -8 3 -21 -13z"/>
<path d="M1485 1291 c-3 -5 -1 -12 5 -16 5 -3 10 1 10 9 0 18 -6 21 -15 7z"/>
<path d="M1320 1280 c0 -5 5 -10 10 -10 6 0 10 5 10 10 0 6 -4 10 -10 10 -5 0
-10 -4 -10 -10z"/>
<path d="M916 1264 c-8 -22 -8 -49 1 -40 8 8 16 56 9 56 -2 0 -7 -7 -10 -16z"/>
<path d="M2297 1263 c-2 -5 -3 -21 -3 -37 1 -32 20 -46 29 -22 4 9 1 15 -6 13
-7 -1 -11 8 -9 26 3 26 -2 36 -11 20z"/>
<path d="M880 1244 c0 -8 5 -12 10 -9 6 4 8 11 5 16 -9 14 -15 11 -15 -7z"/>
<path d="M1446 1251 c-4 -7 -5 -15 -2 -18 9 -9 19 4 14 18 -4 11 -6 11 -12 0z"/>
<path d="M2140 1250 c0 -5 5 -10 10 -10 6 0 10 5 10 10 0 6 -4 10 -10 10 -5 0
-10 -4 -10 -10z"/>
<path d="M1330 1239 c0 -5 5 -7 10 -4 6 3 10 8 10 11 0 2 -4 4 -10 4 -5 0 -10
-5 -10 -11z"/>
<path d="M1495 1240 c4 -6 11 -8 16 -5 14 9 11 15 -7 15 -8 0 -12 -5 -9 -10z"/>
<path d="M1554 1214 c3 -9 6 -18 6 -20 0 -3 4 -3 9 1 16 9 20 -9 11 -48 -7
-34 -7 -37 8 -25 35 27 41 42 23 55 -9 7 -12 13 -8 13 4 0 3 9 -3 20 -13 24
-55 28 -46 4z"/>
<path d="M1745 1210 c3 -5 8 -10 11 -10 2 0 4 5 4 10 0 6 -5 10 -11 10 -5 0
-7 -4 -4 -10z"/>
<path d="M805 1199 c-11 -4 -14 -8 -7 -8 24 -2 27 -3 40 -13 10 -8 17 -7 29 5
15 15 14 16 -6 10 -13 -3 -26 -1 -30 4 -3 6 -14 7 -26 2z"/>
<path d="M1298 1179 c-10 -10 -15 -19 -10 -19 10 1 42 26 42 34 0 11 -15 5
-32 -15z"/>
<path d="M299 1188 c-6 -24 -7 -68 -1 -71 4 -3 8 13 9 34 2 21 0 39 -2 39 -3
0 -5 -1 -6 -2z"/>
<path d="M967 1183 c-3 -5 -4 -19 -2 -33 1 -14 4 -36 5 -50 2 -24 3 -24 10 5
7 27 8 25 9 -17 1 -31 5 -48 14 -48 9 0 11 15 7 58 -4 41 -9 56 -19 54 -8 -2
-11 3 -8 12 6 16 -8 32 -16 19z"/>
<path d="M2275 1180 c-3 -5 -1 -10 4 -10 6 0 11 5 11 10 0 6 -2 10 -4 10 -3 0
-8 -4 -11 -10z"/>
<path d="M575 1170 c-3 -5 -1 -10 4 -10 6 0 11 5 11 10 0 6 -2 10 -4 10 -3 0
-8 -4 -11 -10z"/>
<path d="M2306 1164 c-9 -23 -2 -28 13 -10 7 8 8 17 3 20 -6 3 -13 -1 -16 -10z"/>
<path d="M787 1163 c-13 -12 -7 -33 8 -33 8 0 15 7 15 15 0 9 6 12 15 9 8 -4
15 -1 15 5 0 12 -42 15 -53 4z"/>
<path d="M1727 1150 c-6 -24 -1 -25 19 -6 18 18 18 26 0 26 -7 0 -16 -9 -19
-20z"/>
<path d="M585 1140 c3 -5 8 -10 11 -10 2 0 4 5 4 10 0 6 -5 10 -11 10 -5 0 -7
-4 -4 -10z"/>
<path d="M764 1138 c3 -12 1 -15 -10 -11 -8 3 -14 -1 -14 -9 0 -7 9 -14 20
-15 22 -2 26 14 9 37 -9 13 -10 12 -5 -2z"/>
<path d="M1024 1134 c3 -9 6 -18 6 -20 0 -2 9 -4 21 -4 11 0 29 -10 39 -22 10
-13 22 -19 27 -15 4 5 0 14 -9 21 -10 7 -15 16 -11 19 6 6 -12 11 -29 8 -5 0
-8 6 -8 14 0 9 -9 15 -21 15 -15 0 -19 -4 -15 -16z"/>
<path d="M2281 1129 c-1 -9 -8 -20 -16 -23 -13 -4 -14 -10 -5 -26 8 -15 8 -18
-3 -14 -17 6 -22 -63 -6 -83 18 -21 29 -15 28 15 0 24 -1 25 -9 7 -8 -18 -9
-17 -9 8 -1 16 6 36 15 45 15 15 15 17 1 26 -14 9 -14 11 0 21 9 7 13 18 10
26 -4 11 -6 10 -6 -2z"/>
<path d="M1611 1104 c0 -11 3 -14 6 -6 3 7 2 16 -1 19 -3 4 -6 -2 -5 -13z"/>
<path d="M675 1090 c-3 -5 -1 -10 4 -10 6 0 11 5 11 10 0 6 -2 10 -4 10 -3 0
-8 -4 -11 -10z"/>
<path d="M728 1083 c7 -3 16 -2 19 1 4 3 -2 6 -13 5 -11 0 -14 -3 -6 -6z"/>
<path d="M1038 1083 c7 -3 16 -2 19 1 4 3 -2 6 -13 5 -11 0 -14 -3 -6 -6z"/>
<path d="M696 1055 c-11 -30 -6 -40 11 -22 12 12 14 20 6 28 -7 7 -12 6 -17
-6z"/>
<path d="M1125 1051 c-4 -13 -4 -25 -1 -28 3 -4 6 -1 6 6 0 7 5 9 10 6 12 -8
13 5 1 24 -7 11 -10 9 -16 -8z"/>
<path d="M292 1040 c0 -14 2 -19 5 -12 2 6 2 18 0 25 -3 6 -5 1 -5 -13z"/>
<path d="M614 1026 c-3 -8 -4 -23 -2 -33 3 -11 6 -6 9 15 6 34 2 42 -7 18z"/>
<path d="M1027 1034 c-8 -13 68 -101 79 -91 4 4 2 7 -4 7 -7 0 -12 6 -12 13 0
7 -9 19 -21 27 -12 8 -24 24 -28 34 -4 11 -10 15 -14 10z"/>
<path d="M1065 1030 c-3 -5 -1 -10 4 -10 6 0 11 5 11 10 0 6 -2 10 -4 10 -3 0
-8 -4 -11 -10z"/>
<path d="M1416 1025 c-3 -9 0 -15 10 -15 8 0 22 7 30 15 14 13 13 15 -9 15
-14 0 -27 -7 -31 -15z"/>
<path d="M1383 995 c0 -8 4 -15 9 -15 4 0 8 4 8 9 0 6 -4 12 -8 15 -5 3 -9 -1
-9 -9z"/>
<path d="M1870 994 c-23 -13 -24 -14 -4 -14 12 0 29 -10 37 -22 12 -18 16 -19
16 -7 1 9 -6 22 -14 29 -8 7 -12 16 -9 21 6 11 5 11 -26 -7z"/>
<path d="M1585 980 c-3 -5 -1 -10 4 -10 6 0 11 5 11 10 0 6 -2 10 -4 10 -3 0
-8 -4 -11 -10z"/>
<path d="M935 970 c-3 -5 -1 -10 4 -10 6 0 11 5 11 10 0 6 -2 10 -4 10 -3 0
-8 -4 -11 -10z"/>
<path d="M2240 970 c0 -6 -4 -9 -9 -6 -8 6 -34 -84 -26 -92 6 -6 35 61 29 69
-3 5 2 6 10 3 18 -7 23 21 6 31 -5 3 -10 1 -10 -5z"/>
<path d="M576 961 c-8 -13 3 -38 20 -45 16 -6 19 10 4 19 -6 4 -8 10 -5 15 3
5 1 11 -4 14 -5 4 -12 2 -15 -3z"/>
<path d="M1195 960 c3 -5 10 -10 16 -10 5 0 9 5 9 10 0 6 -7 10 -16 10 -8 0
-12 -4 -9 -10z"/>
<path d="M1320 960 c-11 -8 -7 -9 15 -4 37 8 45 14 19 14 -10 0 -26 -5 -34
-10z"/>
<path d="M1425 950 c3 -5 8 -10 11 -10 2 0 4 5 4 10 0 6 -5 10 -11 10 -5 0 -7
-4 -4 -10z"/>
<path d="M635 939 c-4 -6 -5 -12 -2 -15 2 -3 7 2 10 11 7 17 1 20 -8 4z"/>
<path d="M845 940 c3 -5 10 -10 16 -10 5 0 9 5 9 10 0 6 -7 10 -16 10 -8 0
-12 -4 -9 -10z"/>
<path d="M935 930 c-3 -5 -1 -10 4 -10 6 0 11 5 11 10 0 6 -2 10 -4 10 -3 0
-8 -4 -11 -10z"/>
<path d="M680 914 c0 -15 26 -19 34 -5 3 5 -3 11 -14 14 -13 3 -20 0 -20 -9z"/>
<path d="M740 920 c0 -5 4 -10 9 -10 6 0 13 5 16 10 3 6 -1 10 -9 10 -9 0 -16
-4 -16 -10z"/>
<path d="M1030 920 c-13 -8 -13 -10 2 -10 9 0 20 5 23 10 8 13 -5 13 -25 0z"/>
<path d="M1114 911 c21 -23 26 -26 26 -11 0 5 -10 15 -22 21 -23 12 -23 12 -4
-10z"/>
<path d="M493 905 c-3 -9 -3 -19 1 -22 3 -4 6 1 6 10 0 8 6 18 13 20 9 4 9 6
-1 6 -7 1 -15 -6 -19 -14z"/>
<path d="M1722 903 c2 -11 11 -17 21 -15 10 2 17 -3 17 -12 0 -17 18 -31 27
-22 3 3 -6 17 -20 30 -14 13 -23 27 -20 30 4 3 -1 6 -11 6 -11 0 -16 -6 -14
-17z"/>
<path d="M975 899 c-4 -6 -5 -12 -2 -15 2 -3 7 2 10 11 7 17 1 20 -8 4z"/>
<path d="M1583 903 c-21 -8 -15 -22 7 -16 11 3 20 9 20 14 0 10 -8 10 -27 2z"/>
<path d="M720 892 c0 -5 7 -13 16 -16 10 -4 14 -1 12 6 -5 15 -28 23 -28 10z"/>
<path d="M767 880 c6 -23 53 -57 53 -38 0 9 3 9 12 0 7 -7 22 -12 35 -12 13 0
31 -4 41 -9 9 -5 34 -17 54 -25 20 -9 40 -21 43 -26 3 -5 32 -12 65 -16 33 -4
60 -11 60 -16 0 -5 9 -6 20 -3 14 5 28 -2 47 -24 16 -16 42 -32 58 -36 23 -4
25 -3 10 4 -27 12 -48 38 -41 50 10 15 -26 30 -58 24 -20 -4 -27 -2 -22 6 6
10 -12 16 -36 12 -5 0 -8 3 -8 8 0 12 -48 24 -85 22 -21 -1 -26 1 -16 7 17 12
-1 24 -23 16 -9 -3 -16 -2 -16 4 0 6 -9 8 -20 5 -11 -3 -20 -1 -20 5 0 5 -12
12 -27 15 -44 9 -103 31 -103 39 0 5 -6 8 -14 8 -9 0 -12 -7 -9 -20z"/>
<path d="M1131 872 c-1 -18 18 -52 29 -52 6 0 10 7 10 15 0 8 -6 15 -14 15 -8
0 -17 8 -19 18 -3 9 -5 11 -6 4z"/>
<path d="M500 854 c0 -8 5 -12 10 -9 6 3 10 1 10 -6 0 -7 2 -10 5 -7 8 7 -5
38 -16 38 -5 0 -9 -7 -9 -16z"/>
<path d="M1567 851 c-4 -17 -3 -21 5 -13 5 5 8 16 6 23 -3 8 -7 3 -11 -10z"/>
<path d="M307 852 c14 -9 25 -102 12 -102 -6 0 -7 -5 -3 -11 19 -31 31 69 13
104 -5 9 -15 17 -22 17 -9 0 -9 -2 0 -8z"/>
<path d="M1500 839 c0 -5 5 -7 10 -4 6 3 10 8 10 11 0 2 -4 4 -10 4 -5 0 -10
-5 -10 -11z"/>
<path d="M526 811 c-3 -5 3 -11 14 -14 13 -3 20 0 20 9 0 15 -26 19 -34 5z"/>
<path d="M1530 810 c0 -5 7 -7 15 -4 8 4 15 8 15 10 0 2 -7 4 -15 4 -8 0 -15
-4 -15 -10z"/>
<path d="M1822 795 c0 -16 2 -22 5 -12 2 9 2 23 0 30 -3 6 -5 -1 -5 -18z"/>
<path d="M450 801 c0 -6 4 -13 10 -16 6 -3 7 1 4 9 -7 18 -14 21 -14 7z"/>
<path d="M583 730 c0 -25 2 -35 4 -22 2 12 2 32 0 45 -2 12 -4 2 -4 -23z"/>
<path d="M855 760 c4 -6 11 -8 16 -5 14 9 11 15 -7 15 -8 0 -12 -5 -9 -10z"/>
<path d="M2156 753 c-6 -14 -5 -15 5 -6 7 7 10 15 7 18 -3 3 -9 -2 -12 -12z"/>
<path d="M760 740 c0 -5 5 -10 11 -10 5 0 7 5 4 10 -3 6 -8 10 -11 10 -2 0 -4
-4 -4 -10z"/>
<path d="M890 735 c14 -17 45 -21 35 -5 -4 6 -11 8 -16 5 -5 -4 -9 -1 -9 4 0
6 -5 11 -11 11 -8 0 -8 -5 1 -15z"/>
<path d="M950 731 c0 -5 5 -13 10 -16 6 -3 10 -2 10 4 0 5 -4 13 -10 16 -5 3
-10 2 -10 -4z"/>
<path d="M356 717 c3 -10 9 -15 12 -12 3 3 0 11 -7 18 -10 9 -11 8 -5 -6z"/>
<path d="M1788 707 c-17 -22 -18 -22 -33 -3 -8 11 -15 15 -15 10 0 -6 5 -15
11 -21 7 -7 8 -20 5 -30 -7 -17 -8 -17 -22 1 -14 19 -14 19 -14 -1 0 -30 14
-36 38 -15 11 9 32 25 46 36 14 10 23 22 21 27 -3 4 3 10 12 12 12 3 10 5 -7
5 -15 1 -32 -8 -42 -21z"/>
<path d="M2136 714 c-4 -9 -4 -19 -1 -22 2 -3 7 3 11 12 4 9 4 19 1 22 -2 3
-7 -3 -11 -12z"/>
<path d="M1425 710 c3 -5 8 -10 11 -10 2 0 4 5 4 10 0 6 -5 10 -11 10 -5 0 -7
-4 -4 -10z"/>
<path d="M1510 715 c-1 -5 -2 -18 -1 -27 1 -10 -3 -18 -8 -18 -6 0 -11 -5 -11
-12 0 -8 5 -7 16 4 9 9 14 26 11 39 -2 13 -5 20 -7 14z"/>
<path d="M1580 709 c0 -6 -7 -9 -15 -5 -9 3 -15 0 -15 -9 0 -8 9 -13 20 -12
11 1 20 7 20 13 0 7 6 15 13 17 7 3 5 6 -5 6 -10 1 -18 -4 -18 -10z"/>
<path d="M1668 713 c7 -3 16 -2 19 1 4 3 -2 6 -13 5 -11 0 -14 -3 -6 -6z"/>
<path d="M320 704 c0 -4 7 -12 15 -18 12 -9 13 -18 6 -43 -6 -20 -6 -33 0 -33
5 0 9 3 10 8 0 4 2 18 4 32 3 28 -11 60 -25 60 -6 0 -10 -3 -10 -6z"/>
<path d="M1878 703 c7 -3 16 -2 19 1 4 3 -2 6 -13 5 -11 0 -14 -3 -6 -6z"/>
<path d="M1295 655 c0 -15 5 -21 17 -17 18 4 14 27 -5 35 -7 3 -12 -5 -12 -18z"/>
<path d="M2117 666 c-4 -10 -5 -21 -2 -24 9 -9 17 6 13 25 -3 17 -4 17 -11 -1z"/>
<path d="M431 654 c0 -11 3 -14 6 -6 3 7 2 16 -1 19 -3 4 -6 -2 -5 -13z"/>
<path d="M1980 650 c0 -5 5 -10 11 -10 5 0 7 5 4 10 -3 6 -8 10 -11 10 -2 0
-4 -4 -4 -10z"/>
<path d="M1668 643 c6 -2 18 -2 25 0 6 3 1 5 -13 5 -14 0 -19 -2 -12 -5z"/>
<path d="M550 620 c0 -5 5 -10 11 -10 5 0 7 5 4 10 -3 6 -8 10 -11 10 -2 0 -4
-4 -4 -10z"/>
<path d="M1327 619 c7 -7 15 -10 18 -7 3 3 -2 9 -12 12 -14 6 -15 5 -6 -5z"/>
<path d="M2095 620 c-3 -5 -1 -10 4 -10 6 0 11 5 11 10 0 6 -2 10 -4 10 -3 0
-8 -4 -11 -10z"/>
<path d="M1852 585 c0 -16 2 -22 5 -12 2 9 2 23 0 30 -3 6 -5 -1 -5 -18z"/>
<path d="M2060 585 c0 -8 2 -15 4 -15 2 0 6 7 10 15 3 8 1 15 -4 15 -6 0 -10
-7 -10 -15z"/>
<path d="M740 580 c0 -5 5 -10 11 -10 5 0 7 5 4 10 -3 6 -8 10 -11 10 -2 0 -4
-4 -4 -10z"/>
<path d="M1810 575 c0 -8 2 -15 4 -15 2 0 6 7 10 15 3 8 1 15 -4 15 -6 0 -10
-7 -10 -15z"/>
<path d="M554 572 c-6 -4 -8 -16 -4 -26 6 -18 7 -18 13 4 7 28 6 32 -9 22z"/>
<path d="M1760 530 c0 -13 11 -13 30 0 12 8 11 10 -7 10 -13 0 -23 -4 -23 -10z"/>
<path d="M360 520 c0 -5 5 -10 10 -10 6 0 10 5 10 10 0 6 -4 10 -10 10 -5 0
-10 -4 -10 -10z"/>
<path d="M836 517 c3 -10 9 -15 12 -12 3 3 0 11 -7 18 -10 9 -11 8 -5 -6z"/>
<path d="M948 523 c7 -3 16 -2 19 1 4 3 -2 6 -13 5 -11 0 -14 -3 -6 -6z"/>
<path d="M628 513 c6 -2 18 -2 25 0 6 3 1 5 -13 5 -14 0 -19 -2 -12 -5z"/>
<path d="M1390 500 c0 -5 5 -10 11 -10 5 0 7 5 4 10 -3 6 -8 10 -11 10 -2 0
-4 -4 -4 -10z"/>
<path d="M362 480 c0 -14 2 -19 5 -12 2 6 2 18 0 25 -3 6 -5 1 -5 -13z"/>
<path d="M890 490 c0 -5 5 -10 10 -10 6 0 10 5 10 10 0 6 -4 10 -10 10 -5 0
-10 -4 -10 -10z"/>
<path d="M701 474 c0 -11 3 -14 6 -6 3 7 2 16 -1 19 -3 4 -6 -2 -5 -13z"/>
<path d="M840 476 c0 -2 9 -6 20 -9 11 -3 18 -1 14 4 -5 9 -34 13 -34 5z"/>
<path d="M917 464 c-4 -4 -7 -14 -7 -23 0 -11 3 -12 11 -4 6 6 10 16 7 23 -2
6 -7 8 -11 4z"/>
<path d="M396 437 c3 -10 9 -15 12 -12 3 3 0 11 -7 18 -10 9 -11 8 -5 -6z"/>
<path d="M470 440 c0 -5 5 -10 10 -10 6 0 10 5 10 10 0 6 -4 10 -10 10 -5 0
-10 -4 -10 -10z"/>
<path d="M528 425 c2 -14 6 -25 8 -25 2 0 4 11 4 25 0 14 -4 25 -9 25 -4 0 -6
-11 -3 -25z"/>
<path d="M865 440 c3 -5 13 -10 21 -10 8 0 12 5 9 10 -3 6 -13 10 -21 10 -8 0
-12 -4 -9 -10z"/>
<path d="M968 443 c7 -3 16 -2 19 1 4 3 -2 6 -13 5 -11 0 -14 -3 -6 -6z"/>
<path d="M470 380 c-9 -16 -8 -18 5 -14 8 4 15 12 15 20 0 20 -7 17 -20 -6z"/>
<path d="M750 390 c0 -5 5 -10 11 -10 5 0 7 5 4 10 -3 6 -8 10 -11 10 -2 0 -4
-4 -4 -10z"/>
<path d="M530 370 c0 -5 5 -10 11 -10 5 0 7 5 4 10 -3 6 -8 10 -11 10 -2 0 -4
-4 -4 -10z"/>
<path d="M700 370 c0 -5 7 -10 15 -10 8 0 15 5 15 10 0 6 -7 10 -15 10 -8 0
-15 -4 -15 -10z"/>
<path d="M785 350 c3 -5 11 -10 16 -10 6 0 7 5 4 10 -3 6 -11 10 -16 10 -6 0
-7 -4 -4 -10z"/>
<path d="M1205 350 c-3 -5 -1 -10 4 -10 6 0 11 5 11 10 0 6 -2 10 -4 10 -3 0
-8 -4 -11 -10z"/>
<path d="M1553 338 c-1 -11 -8 -25 -15 -29 -7 -4 -9 -11 -4 -16 4 -4 13 1 19
12 14 25 19 55 9 55 -4 0 -8 -10 -9 -22z"/>
<path d="M735 340 c-3 -5 -1 -10 4 -10 6 0 11 5 11 10 0 6 -2 10 -4 10 -3 0
-8 -4 -11 -10z"/>
<path d="M846 341 c-4 -7 -5 -15 -2 -18 9 -9 19 4 14 18 -4 11 -6 11 -12 0z"/>
<path d="M1280 335 c0 -9 6 -12 15 -9 8 4 15 7 15 9 0 2 -7 5 -15 9 -9 3 -15
0 -15 -9z"/>
<path d="M596 324 c-3 -8 1 -14 9 -14 8 0 18 0 22 -1 4 0 9 4 11 9 5 16 -36
21 -42 6z"/>
<path d="M1100 330 c0 -5 7 -7 15 -4 8 4 15 8 15 10 0 2 -7 4 -15 4 -8 0 -15
-4 -15 -10z"/>
<path d="M705 320 c-3 -5 -1 -10 4 -10 6 0 11 5 11 10 0 6 -2 10 -4 10 -3 0
-8 -4 -11 -10z"/>
<path d="M543 286 c3 -7 0 -20 -6 -27 -10 -11 -9 -11 6 0 19 15 23 41 6 41 -6
0 -9 -6 -6 -14z"/>
<path d="M895 280 c-19 -20 -15 -38 4 -25 6 3 8 11 5 17 -5 7 -1 9 9 5 10 -3
17 -2 17 3 0 19 -18 19 -35 0z"/>
<path d="M1710 286 c0 -17 16 -30 23 -19 3 5 -1 14 -9 21 -12 10 -14 10 -14
-2z"/>
<path d="M1851 284 c0 -11 3 -14 6 -6 3 7 2 16 -1 19 -3 4 -6 -2 -5 -13z"/>
<path d="M850 269 c0 -5 5 -7 10 -4 6 3 10 8 10 11 0 2 -4 4 -10 4 -5 0 -10
-5 -10 -11z"/>
<path d="M950 264 c0 -8 5 -12 10 -9 6 3 10 10 10 16 0 5 -4 9 -10 9 -5 0 -10
-7 -10 -16z"/>
<path d="M1066 265 c-3 -9 0 -15 9 -15 16 0 20 16 6 24 -5 3 -11 -1 -15 -9z"/>
<path d="M1260 270 c0 -5 5 -10 11 -10 5 0 7 5 4 10 -3 6 -8 10 -11 10 -2 0
-4 -4 -4 -10z"/>
<path d="M1530 270 c0 -5 5 -10 11 -10 5 0 7 5 4 10 -3 6 -8 10 -11 10 -2 0
-4 -4 -4 -10z"/>
<path d="M1206 259 c7 -13 43 -17 38 -5 -2 6 -13 12 -24 12 -10 0 -17 -3 -14
-7z"/>
<path d="M1671 244 c0 -11 3 -14 6 -6 3 7 2 16 -1 19 -3 4 -6 -2 -5 -13z"/>
<path d="M810 239 c0 -5 5 -7 10 -4 6 3 10 8 10 11 0 2 -4 4 -10 4 -5 0 -10
-5 -10 -11z"/>
<path d="M1270 240 c-8 -5 -12 -11 -9 -14 3 -3 14 1 25 9 21 16 8 20 -16 5z"/>
<path d="M1348 223 c7 -3 16 -2 19 1 4 3 -2 6 -13 5 -11 0 -14 -3 -6 -6z"/>
<path d="M1495 220 c-3 -5 -1 -10 4 -10 6 0 11 5 11 10 0 6 -2 10 -4 10 -3 0
-8 -4 -11 -10z"/>
<path d="M862 203 c2 -9 8 -18 15 -20 7 -3 9 3 6 16 -6 25 -26 28 -21 4z"/>
<path d="M1200 209 c0 -5 5 -7 10 -4 6 3 10 8 10 11 0 2 -4 4 -10 4 -5 0 -10
-5 -10 -11z"/>
<path d="M1603 185 c0 -8 4 -12 9 -9 5 3 6 10 3 15 -9 13 -12 11 -12 -6z"/>
<path d="M610 170 c0 -5 7 -7 15 -4 8 4 15 8 15 10 0 2 -7 4 -15 4 -8 0 -15
-4 -15 -10z"/>
<path d="M1130 176 c0 -2 9 -6 20 -9 11 -3 20 -1 20 4 0 5 -9 9 -20 9 -11 0
-20 -2 -20 -4z"/>
<path d="M1400 170 c0 -5 5 -10 11 -10 5 0 7 5 4 10 -3 6 -8 10 -11 10 -2 0
-4 -4 -4 -10z"/>
<path d="M1347 141 c-4 -17 -3 -21 5 -13 5 5 8 16 6 23 -3 8 -7 3 -11 -10z"/>
<path d="M1510 138 c-12 -22 -12 -22 6 -6 10 10 15 20 12 24 -4 3 -12 -5 -18
-18z"/>
<path d="M900 133 c0 -11 3 -14 8 -7 4 6 14 14 22 17 10 4 8 6 -7 6 -16 1 -23
-5 -23 -16z"/>
<path d="M1380 139 c0 -5 5 -7 10 -4 6 3 10 8 10 11 0 2 -4 4 -10 4 -5 0 -10
-5 -10 -11z"/>
<path d="M971 124 c0 -11 3 -14 6 -6 3 7 2 16 -1 19 -3 4 -6 -2 -5 -13z"/>
<path d="M1311 124 c0 -11 3 -14 6 -6 3 7 2 16 -1 19 -3 4 -6 -2 -5 -13z"/>
<path d="M808 63 c7 -3 16 -2 19 1 4 3 -2 6 -13 5 -11 0 -14 -3 -6 -6z"/>
<path d="M898 53 c7 -3 16 -2 19 1 4 3 -2 6 -13 5 -11 0 -14 -3 -6 -6z"/>
<path d="M977 49 c7 -7 15 -10 18 -7 3 3 -2 9 -12 12 -14 6 -15 5 -6 -5z"/>
<path d="M1020 47 c11 -12 117 -33 135 -27 14 5 3 9 -35 14 -30 4 -66 10 -80
13 -14 3 -23 3 -20 0z"/>
<path d="M1180 27 c10 -9 122 -18 117 -10 -4 5 -32 11 -64 12 -32 1 -55 0 -53
-2z"/>
<path d="M1315 10 c3 -5 8 -10 11 -10 2 0 4 5 4 10 0 6 -5 10 -11 10 -5 0 -7
-4 -4 -10z"/>
<path d="M1348 3 c7 -3 16 -2 19 1 4 3 -2 6 -13 5 -11 0 -14 -3 -6 -6z"/>
</g>
</svg>
